PathFileType	4	(X/Y/Z)	1H_nor_slow_left.trc
DataRate	CameraRate	NumFrames	NumMarkers	Units	OrigDataRate	OrigDataStartFrame	OrigNumFrames
250.00	250.00	21	18	mm	250.00	15361	20480
Frame#	Time	c7	r_should	l_should	clavicle	r_upa	r_elb_l	r_elb_m	r_low	r_wri_l	r_wri_m	r_met	l_upa	l_elb_l	l_elb_m	l_low	l_wri_l	l_wri_m	l_met
	X1	Y1	Z1	X2	Y2	Z2	X3	Y3	Z3	X4	Y4	Z4	X5	Y5	Z5	X6	Y6	Z6	X7	Y7	Z7	X8	Y8	Z8	X9	Y9	Z9	X10	Y10	Z10	X11	Y11	Z11	X12	Y12	Z12	X13	Y13	Z13	X14	Y14	Z14	X15	Y15	Z15	X16	Y16	Z16	X17	Y17	Z17	X18	Y18	Z18
15361	61.44000	1217.39929	1427.51831	179.52887	1233.69165	1357.59973	352.59317	1276.60876	1367.76001	19.31147	1332.38843	1290.81335	195.94037	1217.94788	1151.96704	425.00977	1203.66956	1070.90967	449.32220	1142.86230	1038.30042	381.54370	1241.41248	945.46448	439.06467	1285.59595	833.13013	417.67578	1213.27625	818.68982	438.85519	1299.64661	764.76251	455.26166	1305.48230	1173.62122	-67.16051	1322.11023	1093.84900	-85.97338	1243.32703	1068.40100	-40.55199	1379.22949	1039.17871	-8.38689	1417.10364	1021.40759	98.18700	1394.54321	950.88245	74.57637	1485.01465	978.14307	128.57603
15362	61.44400	1217.38538	1427.51404	179.58574	1233.70142	1357.58459	352.64136	1276.57678	1367.81909	19.37198	1332.39185	1290.82678	195.96541	1218.01770	1151.93530	425.04129	1204.77771	1069.99121	449.45877	1142.95703	1038.25342	381.57126	1241.52844	945.43042	439.04776	1285.31531	833.18781	418.21436	1213.46106	818.65308	438.83743	1299.84143	764.75684	455.21439	1305.56970	1173.71509	-67.14452	1322.20312	1094.05823	-85.98318	1243.41736	1068.52356	-40.55305	1379.34619	1039.66602	-8.27606	nan	nan	nan	1394.79150	951.62177	74.89090	1485.13037	979.18787	128.88689
15363	61.44800	1217.37415	1427.51343	179.63712	1233.71033	1357.56616	352.68829	1276.54114	1367.87659	19.43129	1332.40015	1290.83997	195.99358	1218.08667	1151.90527	425.06155	1204.93408	1069.37866	449.42917	1143.05469	1038.20508	381.58963	1241.66541	945.41479	439.03845	1285.38159	833.20593	418.31781	1213.64771	818.62372	438.81125	1300.03711	764.75366	455.15988	1305.65881	1173.80664	-67.12796	1322.29578	1094.26453	-85.99631	1243.92261	1068.31531	-40.47628	1379.45667	1040.15442	-8.18096	nan	nan	nan	1395.01526	952.38409	75.21874	1485.24585	980.20984	129.18639
15364	61.45200	1217.36584	1427.51392	179.68503	1233.72424	1357.54651	352.72485	1276.49878	1367.93616	19.48553	1332.41296	1290.85376	196.01439	1218.15955	1151.88098	425.08340	1205.06848	1069.19897	449.43750	1143.15039	1038.15625	381.59756	1241.81262	945.39355	439.01810	1285.53076	833.20691	418.30774	1213.83923	818.59650	438.77853	1300.24707	764.75226	455.09872	1305.74414	1173.89966	-67.11816	1322.39441	1094.47119	-86.00770	1244.94141	1067.68799	-40.30575	1379.55896	1040.62048	-8.10312	nan	nan	nan	1395.20532	953.10162	75.56126	1485.36609	981.24072	129.48656
15365	61.45600	1217.35791	1427.51050	179.73094	1233.74414	1357.52612	352.76413	1276.46094	1367.99841	19.53911	1332.42529	1290.87000	196.03526	1218.22998	1151.84985	425.10785	1205.18665	1069.12683	449.45450	1143.24683	1038.10681	381.60696	1241.95239	945.36597	438.98306	1285.69617	833.20306	418.25854	1214.03015	818.56189	438.74582	1300.46216	764.75000	455.03705	1305.82886	1173.99207	-67.10675	1322.48755	1094.66223	-86.03120	1245.26501	1067.61096	-40.27971	1379.67993	1041.07617	-8.00451	nan	nan	nan	1395.37402	953.80396	75.90966	1485.46863	982.26868	129.77496
15366	61.46000	1217.34961	1427.50452	179.77713	1233.76074	1357.51172	352.79968	1276.41846	1368.06042	19.59440	1332.42993	1290.88086	196.05533	1218.29517	1151.82043	425.13535	1205.29175	1069.08398	449.46133	1143.34351	1038.05237	381.62399	1242.08911	945.34937	438.95435	1285.86243	833.19800	418.21536	1214.21545	818.52740	438.71509	1300.66248	764.74554	454.98154	1305.91040	1174.08691	-67.09513	1322.58130	1094.84875	-86.05502	1245.41248	1067.68103	-40.28669	1379.80847	1041.52490	-7.92855	nan	nan	nan	1395.53662	954.54401	76.23898	1485.55762	983.26373	130.04848
15367	61.46400	1217.33789	1427.49707	179.82646	1233.77954	1357.49170	352.83978	1276.36389	1368.12903	19.64553	1332.43640	1290.89368	196.07361	1218.36975	1151.79163	425.16461	1205.39160	1069.05347	449.47241	1143.44128	1038.00464	381.63571	1242.21606	945.34143	438.93271	1286.02698	833.19049	418.17276	1214.39551	818.50269	438.68268	1300.85229	764.73596	454.92053	1305.98474	1174.18835	-67.09232	1322.68127	1095.02954	-86.06867	1245.49963	1067.79028	-40.30689	1379.93774	1041.97498	-7.85807	nan	nan	nan	1395.69922	955.26758	76.55852	1485.64050	984.26984	130.31517
15368	61.46800	1217.32837	1427.49426	179.88011	1233.79749	1357.47046	352.87869	1276.30457	1368.20251	19.69914	1332.44043	1290.90259	196.08771	1218.44727	1151.76221	425.20065	1205.48914	1069.01453	449.48389	1143.54309	1037.96118	381.64948	1242.35559	945.32367	438.91357	1286.19507	833.18268	418.12701	1214.56470	818.47217	438.63791	1301.04211	764.73407	454.86133	1306.05774	1174.29248	-67.09810	1322.78918	1095.22290	-86.09480	1245.57446	1067.91284	-40.33867	1380.10754	1042.33032	-7.91623	1417.11182	1027.89441	101.17571	1395.88062	955.99695	76.86981	1485.72412	985.26276	130.59494
15369	61.47200	1217.31921	1427.48975	179.93855	1233.82349	1357.45007	352.92325	1276.24268	1368.27612	19.74863	1332.44470	1290.90369	196.10054	1218.51514	1151.72791	425.22876	1205.58569	1068.97900	449.49591	1143.64490	1037.91870	381.67145	1242.49573	945.29852	438.88901	1286.36047	833.16925	418.08121	1214.72876	818.43695	438.59509	1301.22498	764.72894	454.80679	1306.12622	1174.39648	-67.11510	1322.90881	1095.41711	-86.12685	1245.65491	1068.04089	-40.37557	1380.31128	1042.54102	-8.16437	nan	nan	nan	1396.06592	956.78125	77.18113	1485.81799	986.23383	130.87682
15370	61.47600	1217.30994	1427.48669	179.99776	1233.85559	1357.42383	352.96539	1276.17371	1368.35388	19.79707	1332.44751	1290.90210	196.11040	1218.58435	1151.68896	425.25156	1205.67041	1068.93591	449.49548	1143.74719	1037.88135	381.68835	1242.61584	945.27112	438.85818	1286.51672	833.15393	418.01880	1214.89551	818.39728	438.56238	1301.41040	764.71991	454.74255	1306.19336	1174.49561	-67.13882	1323.03796	1095.61450	-86.16863	1245.73999	1068.16992	-40.42584	1380.44714	1042.94153	-8.16453	nan	nan	nan	1396.26819	957.52344	77.45622	1485.90747	987.21606	131.15614
15371	61.48000	1217.30432	1427.48657	180.06578	1233.89587	1357.39880	353.00836	1276.10278	1368.42310	19.84907	1332.45215	1290.90381	196.12244	1218.66101	1151.65100	425.28497	1205.75525	1068.89941	449.50342	1143.84534	1037.84937	381.70135	1242.73035	945.24347	438.83563	1286.94934	833.07922	417.61880	1215.05420	818.37207	438.52448	1301.59558	764.71173	454.68585	1306.26160	1174.60913	-67.17113	1323.17615	1095.81494	-86.20718	1245.82727	1068.30786	-40.47888	1380.57861	1043.38123	-8.09791	nan	nan	nan	1396.46533	958.26202	77.72593	1485.98547	988.18860	131.42863
15372	61.48400	1217.29517	1427.48901	180.13762	1233.94531	1357.37634	353.05957	1276.02124	1368.49927	19.90714	1332.45447	1290.90405	196.13417	1218.74744	1151.60327	425.31339	1205.85474	1068.86133	449.52197	1143.93311	1037.82300	381.70535	1242.86194	945.21313	438.82651	1287.71155	832.94519	416.80084	1215.20825	818.34235	438.47989	1301.77954	764.70184	454.63306	1306.32971	1174.73389	-67.21357	1323.32288	1096.01282	-86.25597	1245.92334	1068.44165	-40.52623	1380.71240	1043.81116	-8.03020	nan	nan	nan	1396.64417	958.99377	78.05412	1486.05469	989.13519	131.69855
15373	61.48800	1217.28687	1427.49890	180.20985	1233.99658	1357.35352	353.11322	1275.93042	1368.58093	19.96630	1332.46130	1290.91223	196.14580	1218.83826	1151.55957	425.34140	1205.94934	1068.82007	449.53323	1144.02405	1037.79297	381.71848	1242.99316	945.18774	438.81006	1288.01672	832.89154	416.55231	1215.36340	818.31488	438.43555	1301.96851	764.69153	454.57776	1306.39722	1174.86450	-67.26884	1323.47644	1096.21985	-86.30954	1246.03552	1068.56543	-40.57541	1380.84973	1044.25989	-7.96099	nan	nan	nan	1396.81238	959.67206	78.36886	1486.12659	990.10132	131.96101
15374	61.49200	1217.27917	1427.50708	180.27969	1234.05225	1357.32471	353.15964	1275.84326	1368.65906	20.02161	1332.47632	1290.92151	196.15480	1218.92859	1151.52234	425.36633	1206.05286	1068.77869	449.55109	1144.11072	1037.76697	381.73001	1243.12000	945.16754	438.78677	1288.21472	832.86285	416.45227	1215.53284	818.29089	438.39728	1302.15210	764.68060	454.52008	1306.46008	1175.00867	-67.32426	1323.63220	1096.42627	-86.36372	1246.15991	1068.68848	-40.63264	1380.98767	1044.72400	-7.88636	nan	nan	nan	1396.97351	960.32513	78.67727	1486.19922	991.05243	132.22809
15375	61.49600	1217.27209	1427.51257	180.35208	1234.11023	1357.29858	353.21274	1275.74390	1368.73804	20.06917	1332.48596	1290.93628	196.15685	1219.02234	1151.48352	425.38065	1206.15442	1068.73975	449.56577	1144.19751	1037.73584	381.74139	1243.24805	945.15027	438.76440	1288.39185	832.84131	416.38931	1215.69617	818.25751	438.35684	1302.32300	764.67133	454.45697	1306.51929	1175.15698	-67.38490	1323.79614	1096.61975	-86.41917	1246.28577	1068.80798	-40.70284	1381.14429	1045.21057	-7.80627	nan	nan	nan	1397.12927	961.04120	78.97826	1486.27820	991.98926	132.50259
15376	61.50000	1217.26245	1427.51611	180.43332	1234.17114	1357.27759	353.26996	1275.63330	1368.82312	20.11416	1332.49731	1290.95679	196.15208	1219.11609	1151.45081	425.40149	1206.25562	1068.70728	449.57898	1144.29285	1037.70337	381.76657	1243.37927	945.12622	438.75696	1288.54773	832.82257	416.34033	1215.85742	818.22443	438.31842	1302.49512	764.66107	454.39590	1306.58240	1175.31458	-67.45985	1323.96851	1096.82349	-86.46849	1246.41931	1068.92712	-40.77793	1381.29944	1045.67456	-7.74080	nan	nan	nan	1397.28333	961.76282	79.23349	1486.35107	992.94006	132.77911
15377	61.50400	1217.25208	1427.52576	180.51723	1234.23840	1357.25806	353.31964	1275.52051	1368.90833	20.16401	1332.50952	1290.98181	196.13879	1219.21094	1151.41113	425.41403	1206.36340	1068.67859	449.60010	1144.37976	1037.67822	381.78778	1243.50439	945.11285	438.74210	1288.67847	832.80255	416.29855	1216.01062	818.20123	438.27560	1302.66077	764.64612	454.33292	1306.65710	1175.46936	-67.52519	1324.14636	1097.03589	-86.51543	1246.56372	1069.04321	-40.86952	1381.46191	1046.11646	-7.68356	nan	nan	nan	1397.45630	962.42413	79.46554	1486.41992	993.85901	133.04123
15378	61.50800	1217.24243	1427.53430	180.59311	1234.30591	1357.23694	353.36676	1275.39636	1368.99915	20.21738	1332.51611	1291.00024	196.12619	1219.30786	1151.36926	425.42841	1206.47144	1068.65198	449.62430	1144.47241	1037.65344	381.80734	1243.63928	945.09888	438.73135	1288.79761	832.78223	416.24759	1216.16003	818.17004	438.23013	1302.82629	764.62390	454.26260	1306.74390	1175.62122	-67.58113	1324.33508	1097.25146	-86.56458	1246.73193	1069.14600	-40.97167	1381.63440	1046.54578	-7.63417	nan	nan	nan	1397.66211	963.10620	79.71004	1486.48328	994.76520	133.30356
15379	61.51200	1217.23022	1427.54224	180.66988	1234.37476	1357.22229	353.42044	1275.25854	1369.08960	20.26629	1332.51990	1291.01868	196.11209	1219.40601	1151.32739	425.44641	1206.57324	1068.62524	449.64380	1144.57153	1037.63245	381.81879	1243.78247	945.07898	438.73001	1288.92444	832.76318	416.19748	1216.31409	818.13123	438.19254	1302.98157	764.60205	454.19257	1306.83533	1175.77686	-67.64002	1324.52710	1097.47681	-86.61356	1246.91760	1069.23987	-41.09233	1381.77246	1047.09460	-7.44172	nan	nan	nan	1397.84949	963.81348	79.96968	1486.54004	995.67200	133.55954
15380	61.51600	1217.21338	1427.54370	180.74915	1234.44958	1357.21069	353.48178	1275.10938	1369.17505	20.31475	1332.52185	1291.03357	196.09549	1219.51123	1151.29065	425.46741	1206.68054	1068.58777	449.65399	1144.66626	1037.60413	381.84082	1243.91382	945.04742	438.72351	1289.04797	832.73853	416.14883	1216.46399	818.09027	438.14584	1303.13916	764.57715	454.11926	1306.92346	1175.93164	-67.70592	1324.73486	1097.71228	-86.67258	1247.11157	1069.34521	-41.22388	1381.91968	1047.67480	-7.20701	nan	nan	nan	1398.00818	964.46588	80.22878	1486.59717	996.55499	133.82309
15381	61.52000	1217.19312	1427.54077	180.82941	1234.52783	1357.19409	353.53790	1274.95312	1369.25403	20.36319	1332.52039	1291.04834	196.08316	1219.62305	1151.25891	425.49423	1206.80762	1068.54626	449.67877	1144.77429	1037.56860	381.87363	1244.03528	945.01202	438.71066	1289.17188	832.70575	416.10361	1216.60803	818.04529	438.09674	1303.28455	764.54303	454.04904	1307.01172	1176.07800	-67.76632	1324.95679	1097.94080	-86.73306	1247.30579	1069.45044	-41.35744	1382.15344	1048.02246	-7.24930	nan	nan	nan	1398.14624	965.12140	80.49920	1486.65039	997.42053	134.09796
